<svg xmlns="http://www.w3.org/2000/svg" width="455.393" height="59.878" viewBox="0 0 455.393 59.878">
  <g id="Group_33" data-name="Group 33" transform="translate(-453 -114.285)">
    <g id="hinduism" transform="translate(453 119.324)">
      <path id="path2396_1_" d="M1747.807,1392.957l-4.048,4.254,4.255,3.911,4.116-4.186-4.323-3.979Z" transform="translate(-1720.299 -1392.957)" fill="#fff"/>
      <path id="path3168_1_" d="M1724.768,1403.372s4.528,14.272,17.634,2.4c.069.068,3.568,4.665,3.637,4.665-5.078,5.7-20.585,8.783-21.271-7.067Z" transform="translate(-1705.562 -1401.039)" fill="#fff"/>
      <path id="path3170_1_" d="M1646.148,1443.987l-3.156-5.695c16.148-10.841,24.885,4.8,13.243,11.871l3.774,1.509c4.506-.185,3.858-5.543,8.646-9.881,1.807-2.174,14.592-5.032,14.89,13.243-1.556,17.155-20.266,15.439-17.017,0,1.944,10.132,13.357,3.728,13.45-.069,1.486-1.577,1.4-14.546-6.245-9.881a19.487,19.487,0,0,0-3.225,4.872c-.5.983-2.092,4.82-8.92,3.637,6.37,13.171-4.179,16.668-5.214,16.88-2.675,1.346-18.963-.11-17.224-21.066,1.4,10.979,6.915,16.844,15.714,14.615,6.661-1.686,6.633-13.678-3.637-9.744l-2.333-7.274c-.1-.308,3.3.865,6.793-.068,2.833-.758,5.174-6.293-2.265-6.313-3.259-.008-4.849,2.241-7.274,3.362Z" transform="translate(-1639.019 -1425.255)" fill="#fff"/>
    </g>
    <g id="Islam" transform="translate(528.892 134.688) rotate(-30)">
      <g id="path74_1_" transform="translate(0 0)">
        <path id="path27_1_" d="M1238.482,1335.331a19.293,19.293,0,0,1,29.37-24.453,22.786,22.786,0,1,0-1.9,30.054q-.44.309-.9.6a19.3,19.3,0,0,1-26.568-6.2Z" transform="translate(-1227.045 -1302.034)" fill="#fff"/>
        <path id="path58_1_" d="M1238.482,1335.331a19.293,19.293,0,0,1,29.37-24.453,22.786,22.786,0,1,0-1.9,30.054q-.44.309-.9.6a19.3,19.3,0,0,1-26.568-6.2Z" transform="translate(-1227.045 -1302.034)" fill="#fff"/>
        <path id="path83_1_" d="M1238.482,1335.331a19.293,19.293,0,0,1,29.37-24.453,22.786,22.786,0,1,0-1.9,30.054q-.44.309-.9.6a19.3,19.3,0,0,1-26.568-6.2Z" transform="translate(-1227.045 -1302.034)" fill="#fff"/>
      </g>
      <g id="polygon303_1_" transform="translate(32.697 15.517)">
        <path id="polygon165_1_" d="M1379.282,1377.261l1.934-5.951,1.933,5.951h6.257l-5.062,3.694,1.933,5.959-5.062-3.674-5.062,3.68,1.934-5.966-5.062-3.693Z" transform="translate(-1373.025 -1371.31)" fill="#fff"/>
        <path id="polygon256_1_" d="M1379.282,1377.261l1.934-5.951,1.933,5.951h6.257l-5.062,3.694,1.933,5.959-5.062-3.674-5.062,3.68,1.934-5.966-5.062-3.693Z" transform="translate(-1373.025 -1371.31)" fill="#fff"/>
        <path id="polygon287_1_" d="M1379.282,1377.261l1.934-5.951,1.933,5.951h6.257l-5.062,3.694,1.933,5.959-5.062-3.674-5.062,3.68,1.934-5.966-5.062-3.693Z" transform="translate(-1373.025 -1371.31)" fill="#fff"/>
      </g>
    </g>
    <path id="sikh" d="M140.971,1027.138a18.559,18.559,0,0,1-3.417,3.326,5.243,5.243,0,0,0-1.2,1.088,1.759,1.759,0,0,0,.19.517c.213.419.236.624.1.746-.053.038-.426.251-.822.472a12.583,12.583,0,0,0-5.137,5.35,9.921,9.921,0,0,0-1.179,4.916,9.773,9.773,0,0,0,.495,3.326,12.4,12.4,0,0,0,6.187,7.07c.4.205.7.4.7.472a8.207,8.207,0,0,1-.411,1.012l-.4.9.654.289a18.841,18.841,0,0,1,2.816,1.667l.616.442v1.393a6.158,6.158,0,0,1-.076,1.438,24.883,24.883,0,0,1-4.147-2.435,26.118,26.118,0,0,1-6.864-6.59,17.292,17.292,0,0,1-2.154-5.083,14.115,14.115,0,0,1-.487-3.889,6.677,6.677,0,0,1,.715-3.493,12.822,12.822,0,0,1,2.268-3.128c1.431-1.644,1.575-1.826,1.446-1.826a10.932,10.932,0,0,0-3.059,1.552,18.392,18.392,0,0,0-2.8,2.74,14.477,14.477,0,0,0-1.659,3.311,11.653,11.653,0,0,0-.533,5.106,16.245,16.245,0,0,0,.951,4.414c1.081,3.135,1.674,4.186,4.794,8.371,1.963,2.641,2.306,3.265,2.633,4.863a6.406,6.406,0,0,0,.183.761c.023.015.137-.053.251-.152.647-.6,3.28-2.869,3.9-3.364a3.866,3.866,0,0,1,.837-.586,10.309,10.309,0,0,1,1.994.86c1.05.578,1.065.495-.1,1-.563.251-1.256.578-1.545.738a6.608,6.608,0,0,0-2.565,2.534,4.1,4.1,0,0,0-.19,1.75,1.9,1.9,0,0,0,.974.959,2.121,2.121,0,0,0,2.275-1.294c.076-.266.069-.4-.107-1.073l-.19-.776.35-.221a7.732,7.732,0,0,1,2.816-1.088l.243-.046v1.621a13.822,13.822,0,0,1-.076,1.864,1.659,1.659,0,0,1-.335.548,1.9,1.9,0,0,0-.464,1.986,2.431,2.431,0,0,0,1.446,1.4,2.913,2.913,0,0,0,1.971-.145,2.224,2.224,0,0,0,1.3-2,4,4,0,0,0-.7-1.393l-.213-.259-.023-1.629c-.03-1.956-.023-2.009.312-1.941a8.446,8.446,0,0,1,3.021,1.385,5.269,5.269,0,0,1-.152.693c-.19.723-.19,1,0,1.362a2.116,2.116,0,0,0,2.192,1,1.711,1.711,0,0,0,.966-1.834,3.96,3.96,0,0,0-1.248-2.123,10.487,10.487,0,0,0-3.607-2.245l-.525-.221.175-.13a13.651,13.651,0,0,1,2.176-1.05l.624-.221.4.289c.221.152,1.324,1.081,2.458,2.047a23.339,23.339,0,0,0,2.1,1.7,2.949,2.949,0,0,0,.145-.693c.2-1.484.731-2.389,3.668-6.233a16.554,16.554,0,0,0,2.3-3.44,24.172,24.172,0,0,0,2.268-6.545,12.2,12.2,0,0,0,.175-2.626,10.722,10.722,0,0,0-.624-4.178,12.292,12.292,0,0,0-5.388-6.461,7.681,7.681,0,0,0-2.077-.875c-.137.03.35.662,1.728,2.23a11.244,11.244,0,0,1,1.986,2.74,6.768,6.768,0,0,1,.594,3.394,12.472,12.472,0,0,1-.555,4.513,16.363,16.363,0,0,1-4.634,7.625,29.746,29.746,0,0,1-5.319,4.246,22,22,0,0,1-3.067,1.69c-.084-.031-.107-.327-.107-1.408v-1.37l.746-.533a18.557,18.557,0,0,1,2.686-1.606l.753-.38-.464-.921a3.578,3.578,0,0,1-.4-.982,2.8,2.8,0,0,1,.555-.259,13.254,13.254,0,0,0,5.1-4.239,11.025,11.025,0,0,0-.426-13.2,13.147,13.147,0,0,0-4.627-3.721,3.825,3.825,0,0,1-.472-.221,2.553,2.553,0,0,1,.236-.677l.274-.632-.175-.114a22.186,22.186,0,0,1-4.513-4.14c-.251-.327-.525-.685-.616-.791l-.152-.19-.738.95Zm5.593,8.211a9.487,9.487,0,0,1,1.043.616,18.389,18.389,0,0,1,2.686,2.762,9.858,9.858,0,0,1,1.4,5.144,9.756,9.756,0,0,1-.654,2.6,13.594,13.594,0,0,1-2.823,3.874c-.533.456-2.443,1.887-2.519,1.887a37.67,37.67,0,0,1-1.332-4.642,23.206,23.206,0,0,1,.084-7.237,30.926,30.926,0,0,1,1.423-5.319A4.933,4.933,0,0,1,146.565,1035.349Zm-8.6.829c1.849,6.415,1.887,10.258.167,15.121a2.25,2.25,0,0,1-.373.784,15.218,15.218,0,0,1-2.23-1.355,9.4,9.4,0,0,1-2.724-3.4,6.275,6.275,0,0,1-.769-3.287,8.125,8.125,0,0,1,.86-4.452,10.682,10.682,0,0,1,2.846-3.417,7.993,7.993,0,0,1,1.819-1.043,2.994,2.994,0,0,1,.4,1.05Z" transform="translate(502.264 -907.459)" fill="#fff"/>
    <g id="christian" transform="translate(702 116.721)">
      <g id="g88486_1_" transform="translate(0 0)">
        <g id="g41314-9_1_" transform="translate(0)">
          <g id="g41316-2_1_">
            <g id="g41322-5_1_">
              <path id="path41372-4_1_" d="M251.006-354.048h-5.257v12.571H233.025v5.215h17.98Z" transform="translate(-233.025 354.048)" fill="#fff"/>
            </g>
          </g>
        </g>
        <g id="g41374-7_1_" transform="translate(0)">
          <g id="g41376-1_1_">
            <g id="g41382-9_1_">
              <path id="path41430-5_1_" d="M251.006-354.048h-5.257v12.571H233.025v5.215h17.98Zm-.381.381v17.024H233.406V-341.1H246.13v-12.571Z" transform="translate(-233.025 354.048)" fill="#fff"/>
            </g>
          </g>
        </g>
        <g id="g41432-9_1_" transform="translate(17.981 0)">
          <g id="g41434-4_1_">
            <g id="g41440-4_1_">
              <path id="path41490-4_1_" d="M318.559-341.477v-12.571H313.3v17.786h17.98v-5.215Z" transform="translate(-313.302 354.048)" fill="#fff"/>
            </g>
          </g>
        </g>
        <g id="g41492-3_1_" transform="translate(17.981)">
          <g id="g41494-7_1_">
            <g id="g41500-3_1_">
              <path id="path41548-5_1_" d="M318.559-354.048H313.3v17.786h17.98v-5.215H318.559Zm-.381.381V-341.1H330.9v4.453H313.683v-17.024Z" transform="translate(-313.302 354.048)" fill="#fff"/>
            </g>
          </g>
        </g>
        <g id="g41550-9_1_" transform="translate(0 17.786)">
          <g id="g41552-9_1_">
            <g id="g41558-4_1_">
              <path id="path41608-1_1_" d="M233.026-274.639v5.375h12.724V-241.3h5.257v-33.336Z" transform="translate(-233.026 274.639)" fill="#fff"/>
            </g>
          </g>
        </g>
        <g id="g41610-6_1_" transform="translate(0 17.786)">
          <g id="g41612-4_1_">
            <g id="g41618-9_1_">
              <path id="path41666-8_1_" d="M251.006-274.639h-17.98v5.375h12.723V-241.3h5.257Zm-.381.381v32.574h-4.5v-27.961H233.406v-4.613Z" transform="translate(-233.025 274.639)" fill="#fff"/>
            </g>
          </g>
        </g>
        <g id="g41668-0_1_" transform="translate(17.981 17.786)">
          <g id="g41670-2_1_">
            <g id="g41676-9_1_">
              <path id="path41726-0_1_" d="M313.3-241.3h5.257v-27.961h12.723v-5.375H313.3Z" transform="translate(-313.302 274.639)" fill="#fff"/>
            </g>
          </g>
        </g>
        <g id="g41728-0_1_" transform="translate(17.981 17.786)">
          <g id="g41730-0_1_">
            <g id="g41736-3_1_">
              <path id="path41784-1_1_" d="M331.282-274.639H313.3V-241.3h5.257v-27.961h12.723Zm-.381.381v4.613H318.178v27.961h-4.5v-32.574Z" transform="translate(-313.302 274.639)" fill="#fff"/>
            </g>
          </g>
        </g>
        <g id="g41786-7_1_" transform="translate(7.75 7.808)">
          <g id="g41788-2_1_">
            <g id="g41794-0_1_">
              <path id="path41842-0_1_" d="M288.092-309.416H278.13v-9.772H277.6v9.772h-9.972v.533H277.6v25.2h.533v-25.2h9.962Z" transform="translate(-267.625 319.188)" fill="#fff"/>
            </g>
          </g>
        </g>
        <g id="g88118-6_1_" transform="translate(0.297 0.316)">
          <g id="g82560-5_1_" transform="translate(0 12.624)">
            <path id="path82610-6_1_" d="M-481.472,140.314l7.751,4.907-7.751,4.907Z" transform="translate(481.472 -140.314)" fill="#fff"/>
          </g>
          <g id="g82672-0_1_" transform="translate(12.817 0)">
            <path id="path82722-9_1_" d="M-528.359,147.651l-4.874,7.7-4.874-7.7Z" transform="translate(538.106 -147.651)" fill="#fff"/>
          </g>
          <g id="g82784-3_1_" transform="translate(12.846 42.815)">
            <path id="path82834-2_1_" d="M-528.142,91.8l-4.845-7.653-4.845,7.653Z" transform="translate(537.831 -84.148)" fill="#fff"/>
          </g>
          <g id="g82896-1_1_" transform="translate(27.645 12.673)">
            <path id="path82946-8_1_" d="M-528.705,140.285l-7.7,4.876,7.7,4.876Z" transform="translate(536.407 -140.285)" fill="#fff"/>
          </g>
        </g>
        <g id="g87134-6_1_" transform="translate(0.297 0.316)">
          <g id="g82612-5_1_" transform="translate(0 12.624)">
            <g id="g82614-4_1_">
              <g id="g82620-0_1_">
                <path id="path82670-3_1_" d="M234.352-296.277l7.751,4.907-7.751,4.907Z" transform="translate(-234.352 296.277)" fill="#fff"/>
              </g>
            </g>
          </g>
          <g id="g82724-7_1_" transform="translate(12.817)">
            <g id="g82726-0_1_">
              <g id="g82732-5_1_">
                <path id="path82782-5_1_" d="M301.324-352.637l-4.874,7.7-4.874-7.7Z" transform="translate(-291.576 352.637)" fill="#fff"/>
              </g>
            </g>
          </g>
          <g id="g82836-0_1_" transform="translate(12.846 42.815)">
            <g id="g82838-0_1_">
              <g id="g82844-2_1_">
                <path id="path82894-2_1_" d="M301.395-153.831l-4.845-7.653-4.845,7.653Z" transform="translate(-291.706 161.484)" fill="#fff"/>
              </g>
            </g>
          </g>
          <g id="g82948-8_1_" transform="translate(27.645 12.673)">
            <g id="g82950-2_1_">
              <g id="g82956-2_1_">
                <path id="path83006-0_1_" d="M365.481-296.058l-7.7,4.876,7.7,4.876Z" transform="translate(-357.779 296.058)" fill="#fff"/>
              </g>
            </g>
          </g>
        </g>
      </g>
    </g>
    <g id="g27941_1_" transform="translate(777 119.345)">
      <g id="g27943_1_" transform="translate(0 0)">
        <path id="path28095_1_" d="M1141.173,167.7v-.018a19.854,19.854,0,0,0-3.641-8.769v-4.287h-4.289a19.882,19.882,0,0,0-8.785-3.642l-3.042-3.042-3.042,3.042a19.881,19.881,0,0,0-8.785,3.642H1105.3v4.318a19.841,19.841,0,0,0-3.625,8.738l-3.042,3.042,3.042,3.042a19.882,19.882,0,0,0,3.625,8.753v4.32h4.3a19.88,19.88,0,0,0,8.769,3.642l3.042,3.04,3.042-3.04a19.88,19.88,0,0,0,8.769-3.642h4.3v-4.287a19.914,19.914,0,0,0,3.641-8.787v-.016l3.026-3.026Zm-3.672,4.95a16.079,16.079,0,0,1-3.349,8.09v2.719h-2.719a16.127,16.127,0,0,1-8.108,3.365l-1.909,1.91-1.91-1.91a16.144,16.144,0,0,1-8.105-3.365h-2.719v-2.719a16.082,16.082,0,0,1-3.349-8.09l-1.924-1.926,1.924-1.924a16.156,16.156,0,0,1,3.349-8.092V157.99h2.735a16.142,16.142,0,0,1,8.09-3.349l1.91-1.91,1.909,1.91a16.122,16.122,0,0,1,8.092,3.349h2.735v2.717a16.131,16.131,0,0,1,3.349,8.092l1.924,1.924-1.924,1.926Z" transform="translate(-1098.634 -147.94)" fill="#fff"/>
      </g>
      <path id="path28247_1_" d="M1166.89,185.95V194.1a6.164,6.164,0,0,0-2.562,1.06l-5.763-5.761A14.266,14.266,0,0,1,1166.89,185.95Z" transform="translate(-1145.141 -177.436)" fill="#fff"/>
      <path id="path28399_1_" d="M1166.889,273.351V281.5a14.242,14.242,0,0,1-8.325-3.448l5.763-5.761A6.209,6.209,0,0,0,1166.889,273.351Z" transform="translate(-1145.141 -244.437)" fill="#fff"/>
      <path id="path28551_1_" d="M1213.305,278.049a14.23,14.23,0,0,1-8.325,3.448V273.35a6.167,6.167,0,0,0,2.564-1.062Z" transform="translate(-1181.16 -244.436)" fill="#fff"/>
      <path id="path28703_1_" d="M1145.841,256.865l-5.763,5.761a14.256,14.256,0,0,1-3.448-8.325h8.149a6.19,6.19,0,0,0,1.062,2.564Z" transform="translate(-1128.119 -230.478)" fill="#fff"/>
      <path id="path28855_1_" d="M1232.177,216.21h-8.147a6.167,6.167,0,0,0-1.062-2.562l5.761-5.763a14.24,14.24,0,0,1,3.448,8.325Z" transform="translate(-1195.119 -194.458)" fill="#fff"/>
      <path id="path29007_1_" d="M1232.177,254.3a14.231,14.231,0,0,1-3.448,8.325l-5.761-5.761a6.2,6.2,0,0,0,1.062-2.564Z" transform="translate(-1195.119 -230.478)" fill="#fff"/>
      <path id="path29159_1_" d="M1213.306,189.4l-5.761,5.763a6.184,6.184,0,0,0-2.564-1.062V185.95A14.256,14.256,0,0,1,1213.306,189.4Z" transform="translate(-1181.16 -177.436)" fill="#fff"/>
      <path id="path29311_1_" d="M1145.841,213.647a6.178,6.178,0,0,0-1.062,2.562h-8.149a14.267,14.267,0,0,1,3.448-8.325l5.763,5.763Z" transform="translate(-1128.12 -194.458)" fill="#fff"/>
      <path id="path29463_1_" d="M1190.451,235.751a4.021,4.021,0,1,1-4.021-4.021A4.021,4.021,0,0,1,1190.451,235.751Z" transform="translate(-1163.645 -212.963)" fill="#fff"/>
    </g>
    <path id="path453_2_" d="M784.982,69.326c-1.187,3.2-2.184,5.822-2.207,5.822s-2.45-1.37-5.388-3.052-5.365-3.036-5.38-3.014.89,2.626,2.024,5.807,2.055,5.814,2.055,5.86-.091.107-.205.129-2.8.51-5.959,1.081-5.807,1.058-5.882,1.088c-.107.046,1.172.829,5.228,3.211,2.953,1.735,5.373,3.173,5.373,3.2s-1.781,2.176-3.95,4.794-3.942,4.764-3.934,4.779,2.778-.441,6.134-1.012,6.134-1.012,6.157-.982.053,2.816.069,6.2.053,6.157.076,6.157,1.849-2.123,4.048-4.718,4.033-4.7,4.071-4.688,1.872,2.138,4.071,4.726l4,4.711.061-6.233c.038-3.432.076-6.255.1-6.271s2.762.434,6.1,1,6.08,1.027,6.1,1-1.758-2.192-3.95-4.832c-2.359-2.861-3.935-4.832-3.889-4.863s2.466-1.431,5.373-3.128a55.059,55.059,0,0,0,5.16-3.135c-.076-.03-2.762-.54-5.989-1.126s-5.928-1.1-6.02-1.126c-.152-.053-.053-.342,1.925-5.867,1.141-3.2,2.07-5.822,2.055-5.837s-2.42,1.324-5.35,2.991-5.373,3.029-5.434,3.044c-.091.023-.594-1.271-2.245-5.753-1.172-3.189-2.154-5.791-2.176-5.791s-1.013,2.617-2.207,5.821Zm3.622,6.012c.776,2.085,1.415,3.805,1.438,3.82s1.629-.883,3.584-1.994,3.577-2.009,3.584-1.994-.594,1.743-1.347,3.851-1.362,3.835-1.347,3.843,1.773.342,3.9.731,3.957.731,4.049.753c.122.038-.639.51-3.371,2.1-1.941,1.126-3.523,2.07-3.523,2.093s1.172,1.461,2.61,3.2,2.61,3.166,2.6,3.173-1.811-.289-4.01-.662-4.01-.685-4.041-.685-.061,1.849-.061,4.117c0,2.329-.03,4.1-.069,4.087s-1.225-1.393-2.648-3.067-2.61-3.044-2.648-3.044-1.248,1.385-2.694,3.082l-2.633,3.09-.046-1.3c-.03-.708-.053-2.557-.061-4.094-.008-2.633-.015-2.8-.137-2.762-.236.069-7.953,1.347-7.983,1.324-.008-.015,1.141-1.423,2.565-3.143s2.58-3.128,2.58-3.151-1.141-.715-2.534-1.53-2.991-1.75-3.554-2.085l-1.027-.609,4.033-.731c3.31-.6,4.033-.753,4.01-.852-.008-.061-.616-1.8-1.347-3.866s-1.324-3.759-1.309-3.775,1.53.829,3.371,1.88,3.432,1.956,3.539,2.009l.2.107,1.438-3.874c.791-2.123,1.446-3.858,1.461-3.843s.655,1.727,1.424,3.8Z" transform="translate(97.966 55.743)" fill="#fff"/>
  </g>
</svg>
